G04 #@! TF.FileFunction,Copper,L2,Bot,Signal*
%FSLAX46Y46*%
G04 Gerber Fmt 4.6, Leading zero omitted, Abs format (unit mm)*
G04 Created by KiCad (PCBNEW 4.0.7-e2-6376~58~ubuntu16.04.1) date Wed Jan 10 15:28:01 2018*
%MOMM*%
%LPD*%
G01*
G04 APERTURE LIST*
%ADD10C,0.100000*%
%ADD11R,1.778000X1.778000*%
%ADD12C,1.778000*%
%ADD13C,3.048000*%
%ADD14R,1.651000X1.651000*%
%ADD15C,1.651000*%
%ADD16R,1.524000X1.752600*%
%ADD17C,1.752600*%
%ADD18C,3.302000*%
%ADD19C,0.304800*%
G04 APERTURE END LIST*
D10*
D11*
X121920000Y-91440000D03*
D12*
X121920000Y-93980000D03*
X119380000Y-91440000D03*
X119380000Y-93980000D03*
X116840000Y-91440000D03*
X116840000Y-93980000D03*
X114300000Y-91440000D03*
X114300000Y-93980000D03*
X111760000Y-91440000D03*
X111760000Y-93980000D03*
D11*
X146050000Y-91440000D03*
D12*
X146050000Y-93980000D03*
X143510000Y-91440000D03*
X143510000Y-93980000D03*
X140970000Y-91440000D03*
X140970000Y-93980000D03*
D13*
X64897000Y-58420000D03*
X75057000Y-58420000D03*
D14*
X69977000Y-63500000D03*
D15*
X67437000Y-63500000D03*
D13*
X64897000Y-68580000D03*
X90297000Y-58420000D03*
X100457000Y-58420000D03*
D14*
X95377000Y-63500000D03*
D15*
X92837000Y-63500000D03*
D13*
X90297000Y-68580000D03*
X115697000Y-58420000D03*
X125857000Y-58420000D03*
D14*
X120777000Y-63500000D03*
D15*
X118237000Y-63500000D03*
D13*
X115697000Y-68580000D03*
X141097000Y-58420000D03*
X151257000Y-58420000D03*
D14*
X146177000Y-63500000D03*
D15*
X143637000Y-63500000D03*
D13*
X141097000Y-68580000D03*
D16*
X54864000Y-92583000D03*
D17*
X57404000Y-92583000D03*
X59944000Y-92583000D03*
X62484000Y-92583000D03*
X65024000Y-92583000D03*
X67564000Y-92583000D03*
X70104000Y-92583000D03*
X72644000Y-92583000D03*
X75184000Y-92583000D03*
X77724000Y-92583000D03*
X80264000Y-92583000D03*
X82804000Y-92583000D03*
X85344000Y-92583000D03*
X87884000Y-92583000D03*
X90424000Y-92583000D03*
X90424000Y-77343000D03*
X87884000Y-77343000D03*
X85344000Y-77343000D03*
X82804000Y-77343000D03*
X80264000Y-77343000D03*
X77724000Y-77343000D03*
X75184000Y-77343000D03*
X72644000Y-77343000D03*
X70104000Y-77343000D03*
X67564000Y-77343000D03*
X65024000Y-77343000D03*
X62484000Y-77343000D03*
X59944000Y-77343000D03*
X57404000Y-77343000D03*
X54864000Y-77343000D03*
D18*
X53975000Y-53975000D03*
X161925000Y-53975000D03*
X53975000Y-98425000D03*
X161925000Y-98425000D03*
D19*
X67364100Y-63500000D02*
X67437000Y-63500000D01*
X57404000Y-73460100D02*
X67364100Y-63500000D01*
X57404000Y-77343000D02*
X57404000Y-73460100D01*
X121907700Y-63500000D02*
X143637000Y-63500000D01*
X121907700Y-62510600D02*
X121907700Y-63500000D01*
X121766400Y-62369300D02*
X121907700Y-62510600D01*
X119367700Y-62369300D02*
X121766400Y-62369300D01*
X118237000Y-63500000D02*
X119367700Y-62369300D01*
X120725800Y-92785800D02*
X121920000Y-93980000D01*
X120725800Y-85976600D02*
X120725800Y-92785800D01*
X121907700Y-84794700D02*
X120725800Y-85976600D01*
X121907700Y-63500000D02*
X121907700Y-84794700D01*
X115570000Y-92710000D02*
X116840000Y-93980000D01*
X105791000Y-92710000D02*
X115570000Y-92710000D01*
X90424000Y-77343000D02*
X105791000Y-92710000D01*
X144855900Y-91813300D02*
X144855900Y-91440000D01*
X144035100Y-92634100D02*
X144855900Y-91813300D01*
X138268900Y-92634100D02*
X144035100Y-92634100D01*
X135720100Y-95182900D02*
X138268900Y-92634100D01*
X80323900Y-95182900D02*
X135720100Y-95182900D01*
X77724000Y-92583000D02*
X80323900Y-95182900D01*
X146050000Y-91440000D02*
X144855900Y-91440000D01*
X68846400Y-65761200D02*
X69977000Y-64630600D01*
X68846400Y-88760600D02*
X68846400Y-65761200D01*
X65024000Y-92583000D02*
X68846400Y-88760600D01*
X69977000Y-63500000D02*
X69977000Y-64630600D01*
X94246400Y-63782800D02*
X94246400Y-63500000D01*
X93398600Y-64630600D02*
X94246400Y-63782800D01*
X91293100Y-64630600D02*
X93398600Y-64630600D01*
X78994000Y-76929700D02*
X91293100Y-64630600D01*
X78994000Y-81153000D02*
X78994000Y-76929700D01*
X67564000Y-92583000D02*
X78994000Y-81153000D01*
X95377000Y-63500000D02*
X94246400Y-63500000D01*
X119646400Y-63782800D02*
X119646400Y-63500000D01*
X118798600Y-64630600D02*
X119646400Y-63782800D01*
X116693100Y-64630600D02*
X118798600Y-64630600D01*
X107967700Y-73356000D02*
X116693100Y-64630600D01*
X86791000Y-73356000D02*
X107967700Y-73356000D01*
X82804000Y-77343000D02*
X86791000Y-73356000D01*
X120777000Y-63500000D02*
X119646400Y-63500000D01*
M02*
