M48
;DRILL file {KiCad 4.0.7-e2-6376~58~ubuntu16.04.1} date Wed Jan 10 15:28:11 2018
;FORMAT={-:-/ absolute / inch / decimal}
FMAT,2
INCH,TZ
T1C0.035
T2C0.039
T3C0.040
T4C0.079
T5C0.120
%
G90
G05
M72
T1
X2.655Y-2.5
X2.755Y-2.5
X3.655Y-2.5
X3.755Y-2.5
X4.655Y-2.5
X4.755Y-2.5
X5.655Y-2.5
X5.755Y-2.5
T2
X2.16Y-3.045
X2.16Y-3.645
X2.26Y-3.045
X2.26Y-3.645
X2.36Y-3.045
X2.36Y-3.645
X2.46Y-3.045
X2.46Y-3.645
X2.56Y-3.045
X2.56Y-3.645
X2.66Y-3.045
X2.66Y-3.645
X2.76Y-3.045
X2.76Y-3.645
X2.86Y-3.045
X2.86Y-3.645
X2.96Y-3.045
X2.96Y-3.645
X3.06Y-3.045
X3.06Y-3.645
X3.16Y-3.045
X3.16Y-3.645
X3.26Y-3.045
X3.26Y-3.645
X3.36Y-3.045
X3.36Y-3.645
X3.46Y-3.045
X3.46Y-3.645
X3.56Y-3.045
X3.56Y-3.645
T3
X4.4Y-3.6
X4.4Y-3.7
X4.5Y-3.6
X4.5Y-3.7
X4.6Y-3.6
X4.6Y-3.7
X4.7Y-3.6
X4.7Y-3.7
X4.8Y-3.6
X4.8Y-3.7
X5.55Y-3.6
X5.55Y-3.7
X5.65Y-3.6
X5.65Y-3.7
X5.75Y-3.6
X5.75Y-3.7
T4
X2.555Y-2.3
X2.555Y-2.7
X2.955Y-2.3
X3.555Y-2.3
X3.555Y-2.7
X3.955Y-2.3
X4.555Y-2.3
X4.555Y-2.7
X4.955Y-2.3
X5.555Y-2.3
X5.555Y-2.7
X5.955Y-2.3
T5
X2.125Y-2.125
X2.125Y-3.875
X6.375Y-2.125
X6.375Y-3.875
T0
M30
