G04 #@! TF.FileFunction,Soldermask,Bot*
%FSLAX46Y46*%
G04 Gerber Fmt 4.6, Leading zero omitted, Abs format (unit mm)*
G04 Created by KiCad (PCBNEW 4.0.7-e2-6376~58~ubuntu16.04.1) date Wed Jan 10 15:28:01 2018*
%MOMM*%
%LPD*%
G01*
G04 APERTURE LIST*
%ADD10C,0.100000*%
%ADD11R,1.879600X1.879600*%
%ADD12C,1.879600*%
%ADD13C,3.149600*%
%ADD14R,1.752600X1.752600*%
%ADD15C,1.752600*%
%ADD16R,1.625600X1.854200*%
%ADD17C,1.854200*%
%ADD18C,3.403600*%
G04 APERTURE END LIST*
D10*
D11*
X121920000Y-91440000D03*
D12*
X121920000Y-93980000D03*
X119380000Y-91440000D03*
X119380000Y-93980000D03*
X116840000Y-91440000D03*
X116840000Y-93980000D03*
X114300000Y-91440000D03*
X114300000Y-93980000D03*
X111760000Y-91440000D03*
X111760000Y-93980000D03*
D11*
X146050000Y-91440000D03*
D12*
X146050000Y-93980000D03*
X143510000Y-91440000D03*
X143510000Y-93980000D03*
X140970000Y-91440000D03*
X140970000Y-93980000D03*
D13*
X64897000Y-58420000D03*
X75057000Y-58420000D03*
D14*
X69977000Y-63500000D03*
D15*
X67437000Y-63500000D03*
D13*
X64897000Y-68580000D03*
X90297000Y-58420000D03*
X100457000Y-58420000D03*
D14*
X95377000Y-63500000D03*
D15*
X92837000Y-63500000D03*
D13*
X90297000Y-68580000D03*
X115697000Y-58420000D03*
X125857000Y-58420000D03*
D14*
X120777000Y-63500000D03*
D15*
X118237000Y-63500000D03*
D13*
X115697000Y-68580000D03*
X141097000Y-58420000D03*
X151257000Y-58420000D03*
D14*
X146177000Y-63500000D03*
D15*
X143637000Y-63500000D03*
D13*
X141097000Y-68580000D03*
D16*
X54864000Y-92583000D03*
D17*
X57404000Y-92583000D03*
X59944000Y-92583000D03*
X62484000Y-92583000D03*
X65024000Y-92583000D03*
X67564000Y-92583000D03*
X70104000Y-92583000D03*
X72644000Y-92583000D03*
X75184000Y-92583000D03*
X77724000Y-92583000D03*
X80264000Y-92583000D03*
X82804000Y-92583000D03*
X85344000Y-92583000D03*
X87884000Y-92583000D03*
X90424000Y-92583000D03*
X90424000Y-77343000D03*
X87884000Y-77343000D03*
X85344000Y-77343000D03*
X82804000Y-77343000D03*
X80264000Y-77343000D03*
X77724000Y-77343000D03*
X75184000Y-77343000D03*
X72644000Y-77343000D03*
X70104000Y-77343000D03*
X67564000Y-77343000D03*
X65024000Y-77343000D03*
X62484000Y-77343000D03*
X59944000Y-77343000D03*
X57404000Y-77343000D03*
X54864000Y-77343000D03*
D18*
X53975000Y-53975000D03*
X161925000Y-53975000D03*
X53975000Y-98425000D03*
X161925000Y-98425000D03*
M02*
